<svg xmlns="http://www.w3.org/2000/svg" viewBox="0 0 17.12 17.12"><path d="M2.17,3.07a1.17,1.17,0,0,0-.81,1.18.18.18,0,0,0,.12.21.18.18,0,0,0,.21-.13.11.11,0,0,0,0-.08.84.84,0,0,1,.57-.86C2.47,3.34,2.38,3,2.17,3.07Z" style="fill:#fff"/><path d="M3.39,4H3.34a1,1,0,0,0-.7-.3,1,1,0,0,0-.71.3.93.93,0,0,0-.29.7,1,1,0,0,0,.29.71h0a1.05,1.05,0,0,0,.71.29,1,1,0,0,0,1-1A1,1,0,0,0,3.39,4Z" style="fill:#fff"/><path d="M6.91,5.23a2.27,2.27,0,0,0,1,.54,6.51,6.51,0,0,1,1.72.83l.23-.25c-.52.06-1.18-.45-1.58-.74a1.38,1.38,0,0,1-.53-1.39c0-.2-.41-.09-.47,0a3.66,3.66,0,0,1-.61.9c-.19.2.24.17.35.11.37-.25.73-.51,1.08-.8H7.69A3.64,3.64,0,0,0,7,6c0,.53.49.88.55,1.38.1.8-.79.67-1.19.42s-1.48-1,.31-1.24c.11,0,1.32.18,1,.53S6.2,7.06,6,7l-.11.25A12.53,12.53,0,0,1,9.24,7.1l.13-.26A11.69,11.69,0,0,1,6.66,7l.1.17c.44-.4,1.7-.39,2.28-.44l.06-.26a16.12,16.12,0,0,1-2.6,0V6.7a12.37,12.37,0,0,1,2-.47c.23,0,.28-.27,0-.25a11.52,11.52,0,0,0-1.85.21c-.15,0-.45.25-.13.26H9.44l.19-.27C9.11,6.18,6,6.53,6,5.83c0-.37.62-1,.79-1.32A.81.81,0,0,0,7,3.78a.49.49,0,0,0-.34-.33.33.33,0,0,0-.14,0c-.37-.09-.53,0-.84-.32a2.07,2.07,0,0,1-.39-.54,1,1,0,0,1,.23-1A2.71,2.71,0,0,0,6.06.39L5.59.51c.31.41.67.22,1.08.11A2.42,2.42,0,0,1,8.25.89c.22.07.5,0,.71.16a2.93,2.93,0,0,1,.37.42c.48.48,1.18.36,1.76.65a2.53,2.53,0,0,1,.73.42,1.75,1.75,0,0,1,.17.67,2.49,2.49,0,0,0,.54,1.12c.1.13.57,0,.45-.19-.54-.67-.32-1.61-1.1-2a4.25,4.25,0,0,0-.88-.5c-.48-.14-.94-.1-1.3-.5A1.26,1.26,0,0,0,9.08.67H8.72c-.29-.1-.53-.3-.81-.39a2,2,0,0,0-.59-.1C7,.19,6.23.57,6,.32a.26.26,0,0,0-.47.13c-.07,1-1.42,1.49-.73,2.48.2.3.5.75.88.83h.39c.55.14.24.61,0,.94S5,6.06,5.67,6.46c.34.21,1.15,0,1.54,0H9.44c.18,0,.51-.27.19-.27H6.71l-.13.27a16.35,16.35,0,0,1,1.85-.2V6a14,14,0,0,0-2.12.52c-.15.06-.2.22,0,.23A16.1,16.1,0,0,0,9,6.68c.23,0,.4-.3.06-.26-.78.07-2.11.06-2.73.63-.11.1,0,.16.1.17A12.53,12.53,0,0,0,9.3,7.1c.16,0,.45-.25.13-.27A13.45,13.45,0,0,0,5.79,7c-.1,0-.34.22-.11.25s2.91.33,2.62-.5c-.17-.5-1.35-.56-1.76-.54a1.48,1.48,0,0,0-1.26.58c-.51,1,1.37,1.68,2.09,1.46A.83.83,0,0,0,8,7.47c0-.48-.36-.8-.5-1.23-.22-.67.28-1.29.6-1.85.13-.21-.34-.1-.41,0a12.52,12.52,0,0,1-1,.76l.34.1a3.58,3.58,0,0,0,.67-1H7.24c0,.91,0,1.13.8,1.68a2.58,2.58,0,0,0,1.72.66c.1,0,.4-.14.23-.25a5.32,5.32,0,0,0-1.31-.7A3.26,3.26,0,0,1,7.33,5c-.12-.12-.58.06-.45.18Z" style="fill:#fff"/><path d="M12.35,4.11a1.16,1.16,0,0,0,.64,0c.16,0,.33-.22.5-.23l-.17-.21a.58.58,0,0,0-.13.8l0,0c.19.28.52.37.65.7a1.87,1.87,0,0,0,.1.71c.22.31.37.12.62.24.1,0,.1.18.19.24.44.29.77.59.5,1.19a.09.09,0,0,0,0,.13h0a1,1,0,0,1,.51.64c0,.09.14.75,0,.78s-.27.13-.19.25l.22.3.31-.26a.59.59,0,0,0-.7.45.53.53,0,0,0,0,.25.31.31,0,0,0,.1.08,2.89,2.89,0,0,0,.83,0l-.15-.13a.82.82,0,0,1-.38.62.12.12,0,0,0,0,.17l0,0a1.43,1.43,0,0,1,.71.78l.27-.22a1.25,1.25,0,0,0-1,.65,3.72,3.72,0,0,0-.23.87A3.27,3.27,0,0,1,15,14.57c-.19.22.27.26.4.11a3.28,3.28,0,0,0,.71-1.19c.15-.48.11-1.56.75-1.67.08,0,.32-.09.27-.23a1.28,1.28,0,0,0-.23-.45c.05.06-.39-.45-.37-.35,0-.15.22-.49.26-.71s-.08-.13-.15-.13H16.3c-.13,0-.21,0-.25-.18.12,0,.42-.11.31-.26l-.21-.3L16,9.46c.53-.17.51-.73.38-1.21-.09-.32-.33-.41-.45-.67s0-.56-.09-.86a3.58,3.58,0,0,0-.93-.89h-.14q-.31.09-.33-.45c-.06-.17,0-.3-.12-.47s-1-.72-.55-1.13c.15-.13-.06-.22-.17-.21s-.8.25-.91.23-.57.25-.29.3Z" style="fill:#fff"/><path d="M15.39,14.54a10.5,10.5,0,0,0,.83-1.15,1.94,1.94,0,0,0,.15-1.21c0-.08-.5,0-.49.13a1.85,1.85,0,0,1-.21,1.3,12.52,12.52,0,0,1-.76,1s.39,0,.48-.09Z" style="fill:#fff"/><path d="M2.62,16.33c-.33-.36-.81-.53-.83-1.08,0-.24.13-.53-.16-.66a.57.57,0,0,0-.66.3l.48-.1A1.61,1.61,0,0,0,1,14l-.21.15c.3-.09.46-.14.51-.48A1.3,1.3,0,0,0,1.17,13c-.09-.26-.12-.1-.09-.32s.16-.27.22-.38-.42,0-.48.09c-.14.29-.26.33-.22.64,0,.08.5.9.16,1,0,0-.28.09-.21.15a1.35,1.35,0,0,1,.41.71c0,.1.47,0,.48-.1-.07.38-.23.67,0,1s.5.4.71.63.52-.09.46-.16Z" style="fill:#fff"/><path d="M1.37,14.66l-.51.2c-.26.11-.1.21.11.16a2.78,2.78,0,0,0,.56-.17s.1-.06.1-.11c0-.26-.21-.55-.24-.85a5.75,5.75,0,0,1,0-.83,4.82,4.82,0,0,0,.11-.85c-.15-.34-.57-.31-.92-.27,0,0-.37.11-.27.19a1.51,1.51,0,0,0,.53.32c.07,0,.48,0,.43-.16A2.61,2.61,0,0,1,1,11a3.53,3.53,0,0,0,0-.65c.11-.11-.35-.07-.44,0h0a2.1,2.1,0,0,1,0,.79,2.69,2.69,0,0,0,.23,1.19l.44-.17A1.17,1.17,0,0,1,.72,12l-.27.19c.76-.09.45.4.42.76a3.84,3.84,0,0,0,0,.83,7.28,7.28,0,0,0,.1.8c0,.27.31.21,0,.3L1,15l.5-.21c.32-.12,0-.21-.17-.13Z" style="fill:#fff"/><path d="M1.05,10.44c.54-.4.29-.86,0-1.32a1.15,1.15,0,0,1-.14-.87c.07-.22.3-.35.42-.52s.16-.29,0-.43-.59.11-.38.27A2.64,2.64,0,0,0,.52,8a1.45,1.45,0,0,0-.1.77c0,.35.75,1.16.35,1.45s.13.34.32.2Z" style="fill:#fff"/><path d="M1.24,7.51c-.36-.38.29-.6.38-.87s0-.19,0-.36l-.07-.16a.57.57,0,0,1,.24-.36A1.57,1.57,0,0,0,2,4.51c-.18-.51-.28-.23,0-.51a2,2,0,0,1,.53-.22c.24-.12,1.16-.6.78-.94L3,3.12c.84.24,1.31-.66,2.16-.53.17,0,.57-.24.29-.28a2.11,2.11,0,0,0-1,0c-.34.11-.81.59-1.17.48-.09,0-.53.1-.37.24s-1.23.76-1.34.83c-.54.34-.06.66-.12,1.28-.05.42-.33.66-.39,1.07a.27.27,0,0,1,0,.38h0A.45.45,0,0,1,.82,7a.9.9,0,0,0-.15.19.44.44,0,0,0,.13.54c.12.13.58,0,.44-.2Z" style="fill:#fff"/><path d="M2.22,9.74c.85-.28,1.54-.56,1.59-1.57,0-.12-.45,0-.48.1S3,9.48,2.68,9.41c-.16,0,.18-.4.25-.49a1.4,1.4,0,0,0,.24-.47,2.41,2.41,0,0,0,.1-1c-.07-.29-.41-.24-.66-.22s-.52.24-.2.22c.81-.06.21,1.35,0,1.66S2,9.6,2.3,9.72s.72-.2.91-.36a2.62,2.62,0,0,0,.6-1.17l-.49.11a1.28,1.28,0,0,1-.26.8,2,2,0,0,1-1,.5c-.32.11,0,.2.17.14Z" style="fill:#fff"/><path d="M2,9.71a6.57,6.57,0,0,1,.11,3.38,7.9,7.9,0,0,0,0,3.14c.06.2.55.06.49-.13a9.63,9.63,0,0,1,0-3.63,5.36,5.36,0,0,0-.17-2.89c-.09-.19-.57,0-.48.13Z" style="fill:#fff"/><path d="M3.48,8.09c.69.51,1.55,0,2.2.57a3.74,3.74,0,0,0,.78.65c.3.15,1.33.14,1.31.54,0,.13.44,0,.48-.11s.73.3.81.31h.62a6.76,6.76,0,0,1,1.27.13,2,2,0,0,0,1.65-.32c.17-.14.23-.35.45-.3s.28.51.33.71A7.46,7.46,0,0,1,13.66,12a8.68,8.68,0,0,0,.11,1.69,7.69,7.69,0,0,1,.4,1.77c0,.13.42,0,.46-.08a6.15,6.15,0,0,0,.68-.93c.07-.11-.38,0-.42,0l-.32.26c-.2.16.28.11.37,0l.32-.25h-.43a6.09,6.09,0,0,1-.64.87l.46-.07A20.7,20.7,0,0,0,14.17,13c-.1-.76,0-1.51-.14-2.27-.1-.56-.23-2-1.11-1.63a.9.9,0,0,0-.26.17,1.75,1.75,0,0,1-1.59.54,12.21,12.21,0,0,0-1.48-.06c-.59,0-1.41-.79-1.82,0l.48-.1c0-.43-.29-.49-.64-.52A2.91,2.91,0,0,1,7,9.2a2,2,0,0,1-.66-.49,2,2,0,0,0-.91-.59c-.54-.11-1,.18-1.51-.2-.12-.08-.55.11-.46.18Z" style="fill:#fff"/><path d="M2.31,15.94c0-1.22-1.06-2.52-.58-3.77H1.26a5.74,5.74,0,0,1,.25,1.7c0,.23.47.15.48,0a11.48,11.48,0,0,1,.31-1.15,4.05,4.05,0,0,0,0-1.1l-.49.13a.81.81,0,0,1-.21.71h.47c-.09-.37.18-.62.26-1a1.75,1.75,0,0,0,0-.72c-.05-.21-.53-.08-.49.13.15.65-.36,1.07-.23,1.67,0,.21.4.06.48,0a1.21,1.21,0,0,0,.24-.88c0-.19-.5-.08-.49.13a13.22,13.22,0,0,1-.33,2.17L2,13.86a5.68,5.68,0,0,0-.25-1.78c-.05-.18-.41-.09-.47.05a3.45,3.45,0,0,0,0,1.91,5.89,5.89,0,0,1,.31,1.09c0,.28.23.59.23.85s.48.15.48,0Z" style="fill:#fff"/><path d="M6.39,9.32a.82.82,0,0,1-.72.41c-.28,0-.62-.46-.32-.72s-.07-.37-.23-.23c-.41.34-.15,1,.26,1.22a1.06,1.06,0,0,0,1.29-.51C6.8,9.31,6.51,9.14,6.39,9.32Z" style="fill:#fff"/><path d="M9.51,10.14c.15.12.1.58,0,.72a.63.63,0,0,1-.56.4.17.17,0,1,0,0,.33A1,1,0,0,0,9.86,11a1.08,1.08,0,0,0-.11-1c-.16-.14-.4.1-.24.24Z" style="fill:#fff"/><path d="M10.58,10.27v.14a.31.31,0,0,0,0,.19s.08.14.1.1a.79.79,0,0,1-.22.06c-.19.08-.11.4.09.32S11,11,11,10.72a.49.49,0,0,0,0-.17.48.48,0,0,1-.08-.12.85.85,0,0,1,0-.16.3.3,0,0,0-.05-.16.16.16,0,0,0-.24,0A.16.16,0,0,0,10.58,10.27Z" style="fill:#fff"/><path d="M8.1,9.59a1.85,1.85,0,0,0-.37.51.75.75,0,0,0,0,.55l.26-.2a.39.39,0,0,1,0-.24A.2.2,0,0,1,8.11,10a.18.18,0,0,0,0-.24.17.17,0,0,0-.2,0,.51.51,0,0,0-.31.47.75.75,0,0,0,.18.53c.13.15.33,0,.26-.2s.11-.47.27-.66a.17.17,0,1,0-.24-.23Z" style="fill:#fff"/><path d="M8.39,3.67c-.66.42-2,2.2-.93,2.84.85.52,1.73-.21,2-1a1.39,1.39,0,0,0-.83-.09,6,6,0,0,1-1,.8l.81.11c0-.4.29-.68.23-1.06l-.83-.09c0,.2.18.74-.1.85l.8.09C8.35,6,8.23,5.74,8,5.62s-.26,0-.35-.11C7.11,5.14,8,4.37,8.34,4H7.51c0,.72-.64,1.22-.9,1.88a1.93,1.93,0,0,0,.33,1.93c.06.1.81.19.83.09a3.08,3.08,0,0,1,.69-1.71L7.63,6.1A5.84,5.84,0,0,0,7,8.22c0,.09.77.21.82.09A8.2,8.2,0,0,1,9.82,6L9,5.92a2.39,2.39,0,0,1-.91,1.62l.81.11a2.16,2.16,0,0,1,1.38-1.4l-.81-.11a1.26,1.26,0,0,1-.33,1l.83.1a.82.82,0,0,0,0-.44c0-.13-.75-.18-.83-.09a5.3,5.3,0,0,1-1.21.83c-.18.12-.56.59-.69.63s-.67-.11-1-.06L7,8.18C6.45,8,5.79,7.39,6,6.8l-.82-.09c-.1.57-.41.9.18,1.22a3.92,3.92,0,0,0,1.24.4c.22,0,.71.09.79-.21S7.06,7.67,7,7.57s-.06-.35-.25-.44A1.34,1.34,0,0,0,6,7.06a2,2,0,0,0-.28.3l.83.1a.25.25,0,0,1,.16-.33h0s-.61-.24-.8-.13a.35.35,0,0,0-.22.37c0,.12.76.18.83.1s.16-.18.24-.27L6,7.12c.13.06.19.44.26.56s.5.3.21.35a.89.89,0,0,1-.35-.11C5.6,7.59,6,7.22,6,6.8c0-.08-.77-.22-.82-.09-.43,1,1.15,1.65,2,1.5l-.76-.1a1.78,1.78,0,0,0,1.34.32c.37-.13.69-.62,1.05-.84A4.36,4.36,0,0,0,10,6.79L9.12,6.7a.79.79,0,0,1,0,.43c0,.11.75.19.83.1a1.27,1.27,0,0,0,.32-1c0-.14-.71-.15-.81-.11A2.29,2.29,0,0,0,8.07,7.56c0,.09.73.18.81.11A2.53,2.53,0,0,0,9.83,6c0-.09-.73-.18-.81-.1A8.31,8.31,0,0,0,7,8.22l.82.09a6.1,6.1,0,0,1,.63-2.17s-.73-.23-.83-.09a3.08,3.08,0,0,0-.69,1.71l.83.09a1.93,1.93,0,0,1-.33-1.93c.25-.66.91-1.15.9-1.88,0-.13-.75-.17-.83-.09C7.23,4.22,6.3,5,6.73,5.43c.08.08.24.08.35.12a2.24,2.24,0,0,1,.7.52,1.16,1.16,0,0,0,.8.08c.3-.12.17-.64.13-.88s-.83-.13-.83-.09c.06.38-.24.66-.23,1.06,0,.12.73.16.82.1a6.12,6.12,0,0,0,1-.83l-.83-.09a1.81,1.81,0,0,1-1,1.1l.7.05c-.65-.16-.34-1.39-.1-1.78s.22-.14.33-.3a2,2,0,0,1,.62-.7S8.58,3.55,8.39,3.67Z" style="fill:#fff"/><path d="M6.89,7.76h0L7,7.84a.72.72,0,0,1-.2-.29V7.12a.39.39,0,0,0-.45-.26c-.15,0-.42.15-.38.35a2.05,2.05,0,0,0,.1.65.84.84,0,0,0,.48.46.52.52,0,0,0,.56-.17A.26.26,0,0,0,7,7.79a.11.11,0,0,0-.08,0Z" style="fill:#fff"/><path d="M7.46,7.13c.11-.21.23-.41.35-.62S7.19,6,7,6.25a3.37,3.37,0,0,0-.35.62c-.11.21.1.29.24.33s.45.09.53-.07Z" style="fill:#fff"/><path d="M5.69,6.8c-.1,0-.08,0,.07.16s.07.21.15.15h.18A.36.36,0,0,0,6.34,7a2.11,2.11,0,0,0,.44-.5c.1-.16-.38-.79-.46-.66a1.57,1.57,0,0,1-.43.46.35.35,0,0,1-.28.07h-.2A1.64,1.64,0,0,0,5.57,7a.9.9,0,0,0,.49.45c.13,0,0-.29,0-.32s-.18-.36-.34-.4Z" style="fill:#fff"/><path d="M2.72,6.9c-.08.2-.23.54-.45.64H3a1.23,1.23,0,0,1-.19-.4C2.72,7,1.93,7,2,7.17a.55.55,0,0,0,.48.31.77.77,0,0,0,.37,0s.35-.1.21-.09l-.47-.1c.22.13,0,.63,0,.82a1.5,1.5,0,0,1-.78,1.16c-.18,0-.12.14,0,.22a.76.76,0,0,0,.59,0c.79-.24,1-1.06,1.14-1.76a.51.51,0,0,0-.25-.63C3,7,2.7,7.1,2.38,7.18l.5.05H2.79l.11.12v-.1H2a1.18,1.18,0,0,0,.27.49.83.83,0,0,0,.72,0A1.37,1.37,0,0,0,3.52,7c.1-.23-.72-.32-.8-.12Z" style="fill:#fff"/><path d="M1.37,10.43v.24a.43.43,0,0,0,.36.39c.18,0,.42,0,.46-.24v-.24a.4.4,0,0,0-.36-.39C1.67,10.19,1.38,10.19,1.37,10.43Z" style="fill:#fff"/><path d="M2,9.24l.1.14L2.29,9a1.31,1.31,0,0,0-1,.91,3.42,3.42,0,0,0,.08.84,3.45,3.45,0,0,1-.22,1.35L2,12v-.16c0-.35-.84-.23-.83.14a7.68,7.68,0,0,0,.3,1.9c.11.35.93.19.82-.14A8.17,8.17,0,0,1,2,11.84L1.08,12a.43.43,0,0,0,.1.29c.17.26.7.13.8-.14A3.69,3.69,0,0,0,2.2,11c0-.48-.32-1.19.39-1.45.13,0,.35-.2.23-.37L2.72,9c-.2-.27-1,0-.77.27Z" style="fill:#fff"/><path d="M2,14H2c-.05-.19-.33-.2-.48-.15s-.37.19-.32.38v.08c.05.19.32.21.48.15s.37-.19.32-.38Z" style="fill:#fff"/><path d="M1.39,14.38c.66.15,1.18,0,1.23-.84,0-.35-.09-.68-.1-1a5.59,5.59,0,0,1,.28-1.21,2.82,2.82,0,0,0,.06-1c0-.25-.27-.48-.27-.72s-.8,0-.8.23.22.48.27.73a3.37,3.37,0,0,1-.25,1.6c-.24.73.27,1.58-.2,2.24l.36-.2h.32c-.1,0-.14-.1-.25-.13s-.88.28-.65.33Z" style="fill:#fff"/><path d="M1.59,14v.29c0,.05.09.14.11.17a2.43,2.43,0,0,0,.25.2s.29.21.29.1v-.3l-.11-.16a2.43,2.43,0,0,0-.25-.2S1.59,13.89,1.59,14Z" style="fill:#fff"/><path d="M14.89,14.94v-.22c0-.07.23-.12.3-.18a2.62,2.62,0,0,0,.45-.49c.26-.34-.37-.63-.64-.47a2,2,0,0,1-.3.14h-.1l.25.18a1.21,1.21,0,0,1-.11-.3v.14l-.18.16h-.28a1.32,1.32,0,0,0,.48.09h.45c.15,0,.39,0,.4-.26s-.24-.34-.42-.37a10.54,10.54,0,0,0-1.12-.08.26.26,0,0,0-.28.24.17.17,0,0,0,0,.1.51.51,0,0,0,.5.29,3.51,3.51,0,0,1,.91.08v-.63h-.5a.81.81,0,0,1-.31,0,.4.4,0,0,0-.42.18.45.45,0,0,0,0,.34c.11.31.27.55.64.54a1.87,1.87,0,0,0,.92-.28L15,13.63a1.62,1.62,0,0,1-.51.5.67.67,0,0,0-.38.54.38.38,0,0,0,.29.42c.14.05.46.06.5-.15Z" style="fill:#fff"/><path d="M.94,10.47c0-.11.15-.17.22-.23A1.08,1.08,0,0,0,1.34,10a.3.3,0,0,0-.06-.42h0c-.13-.08-.57.11-.39.23s-.07.33-.16.39-.27.2-.25.39.5.05.48-.13Z" style="fill:#fff"/><path d="M2,13.62a7.92,7.92,0,0,0,.22-2,16.1,16.1,0,0,0-.22-2H1.67c.34.41.18,1.25.17,1.75a10.9,10.9,0,0,1-.18,1.71c0,.21.45.13.48,0a11.39,11.39,0,0,0,.18-2.33,2.09,2.09,0,0,0-.2-1.28c-.08-.09-.24,0-.32,0-.55.2-.16.89-.1,1.29a7.78,7.78,0,0,1-.17,3c-.05.21.44.14.49-.05Z" style="fill:#fff"/><path d="M2.35,13.8a9.55,9.55,0,0,0,.37-3.28,3.82,3.82,0,0,1-.12-.66c0-.48.26-.47.58-.67a1.17,1.17,0,0,0,.55-.57c0-.11-.42-.06-.48.08-.26.59-.86.42-1.12.85-.12.2,0,.49.05.7a8.68,8.68,0,0,1-.31,3.62C1.87,14,2.31,13.93,2.35,13.8Z" style="fill:#fff"/><path d="M7.25,7.15c.55-.16,2-.45,2.2-1.05S8.29,4.57,7.84,4.33,6.42,3.53,6,4.12a2.37,2.37,0,0,0,.2,2.51,2.15,2.15,0,0,0,2.13.72,3.58,3.58,0,0,0,2.31-1.1C11,5.74,10.49,5,10,4.77a1.63,1.63,0,0,0-1,.11,9.51,9.51,0,0,1-2.3.42c-.28,0-.36.39,0,.38A8.12,8.12,0,0,0,8,5.51c.52-.1,1.51-.64,2-.16,1.14,1.16-2.19,1.94-3,1.41a1.87,1.87,0,0,1-.74-1.31C6.2,5,6.18,4.38,6.85,4.36a2.51,2.51,0,0,1,.89.42c.27.17,1.09.66,1.12,1,.07.66-1.29.91-1.72,1s-.2.44.1.35Z" style="fill:#fff"/><path d="M5.87,4.41c-.22.42-.7.66-1,1a9.44,9.44,0,0,0-1,1c-.13.15-.34.31-.31.53,0,.06.09.09.12.13.22.28.53.34.6.73,0,.2.52.08.48-.12-.06-.36-.35-.45-.52-.73s.29-.73.54-1C5.23,5.43,6,5.07,6.32,4.44c.12-.22-.37-.19-.45,0Z" style="fill:#fff"/><path d="M9.48,5c.15,0,.11,0-.1-.07a2.72,2.72,0,0,1-.47-.19,5.63,5.63,0,0,0-.79-.36,1,1,0,0,0-1,.26A2.91,2.91,0,0,0,6.51,7c.25.9,1.24,1.23,1.88,1.76l-.29-.7c.41-.39.42-.56,0-.53H7.87A1.72,1.72,0,0,1,7.12,7c-.17-.17-.5-.8-.47-.24s.11.07.41,0C7.58,6.55,8,6.55,8.32,6a1.76,1.76,0,0,0,.24-1.36c-.36-1.08-1.63-1-2.45-.51a3.28,3.28,0,0,0-1.37,1.8c-.1.27-.1.66-.22.91l.6-.46c-.14,0-.37-.22-.52-.27a1.46,1.46,0,0,0-.72,0,3.46,3.46,0,0,0-1.5.64C1.53,7.34.63,7.8.51,8.89s1.38,1.28,1.86.51c-.29.08-.32.11-.11.07a.55.55,0,0,0,.25-.07A1.49,1.49,0,0,0,3,9.12a1.62,1.62,0,0,0,.5-.91c.17-.89-.35-1.21-1-1.62-1.09-.69-2.1,1-1,1.73.38.24.35.3.39-.32s0-.59-.48-.37a1.77,1.77,0,0,0-.77.76l1.87.5c0,.36,0,.25.29.06a4.59,4.59,0,0,0,.49-.39,1.58,1.58,0,0,1,1-.46l-.71-.29A1.88,1.88,0,0,0,6.16,8,4,4,0,0,0,6.6,6.62,1.79,1.79,0,0,1,7,6l.17-.16c.32-.14.23-.2-.25-.19l-.3-.71c.4-.2.42-.26,0-.17a1.42,1.42,0,0,0-.45.16,3.25,3.25,0,0,0-.78.53,1.67,1.67,0,0,0-.68,1.41C4.83,8,6.25,9.1,7.25,9.4s2.7.27,2.84-1.14c.06-.68-.35-1-.85-1.29a9,9,0,0,1-.85-.64c0,.41.06.44.11.09a.39.39,0,0,0,.06-.33l-1,.25c.47.11.9.46,1.38.58a2.14,2.14,0,0,0,1.53-.17c1.17-.53.15-2.26-1-1.72Z" style="fill:#fff"/><path d="M2.36,12.82h0a1,1,0,0,0-.71-1.71,1.09,1.09,0,0,0-.71.3H1a1,1,0,0,0-.29.71,1,1,0,0,0,1,1,1,1,0,0,0,.7-.3Z" style="fill:#fff"/><path d="M2.64,11.55V10.47a1,1,0,0,0-2,0v1.08a1,1,0,0,0,2,0Z" style="fill:#fff"/><path d="M3.15,5.81c.31.06.33,0,.08-.08A1.2,1.2,0,0,0,2.9,5.6a1.51,1.51,0,0,0-.79,0l1.27,1A2.69,2.69,0,0,1,4.6,4.85.86.86,0,0,0,5,4.64c.07-.09-.1-.56-.29-.52a2.19,2.19,0,0,0-.39.29c-.1.06-.58.23-.22.19l.71.29c-.23.66-.15.91.25.74h.32a4.64,4.64,0,0,1,.91.06c.63.08,1.25.19,1.88.27a1,1,0,0,1,1.09.65c.08.31-.21,1-.63,1l.71.29-.11-.11.29.71V8.31c.08-1.29-1.92-1.28-2,0-.12,1.72,2,1.32,2.78.55A2.69,2.69,0,0,0,11,5.49c-.79-1.4-2.12-1.44-3.54-1.65-1.25-.2-3-.62-4,.48a1.27,1.27,0,0,0,1.3,2.13c1.13-.41,2.39-1.51,2-2.83-.48-1.53-2.22-1.05-3.23-.43a4.68,4.68,0,0,0-2.1,3.39,1,1,0,0,0,1,1,.77.77,0,0,0,.3,0c-.46.12,0,.17.26.24a1.3,1.3,0,0,0,.78,0c1.19-.46.68-2.39-.53-1.93Z" style="fill:#fff"/><path d="M5.75,4.7c.36-.51.82-.82.62-1.53a1.25,1.25,0,0,0-1.22-.91v2A1.89,1.89,0,0,0,6.85,2.9c.16-.42.17-.6.67-.44a5.53,5.53,0,0,1,1,.65c.61.35,1.55.28,2,.76a7.41,7.41,0,0,1,.8,1.28l.84,1.36A1,1,0,0,0,14.09,6c.29-2.23-2.43-1-3.31-2A3.57,3.57,0,0,0,9,2.65a7.11,7.11,0,0,0-2.79-.2c-1.91.34-1.34,3.17.47,2.49,1.3-.48,2.67-2.78.65-3.32a1,1,0,0,0-1.13.46c-.86,1.25-.35,2.71.45,3.83A14.55,14.55,0,0,0,8,7.5c.26.27.54.52.82.76l.42.36c.36-.51.33-.74-.09-.71-1.15-.12-1.4,1.79-.28,2,.43.07.81.28,1.24.33A3.87,3.87,0,0,0,11.37,10c.79-.14,1.39-.26,1.76-1.08a2.38,2.38,0,0,0-1.5-3,2.53,2.53,0,0,0-.77-.12c-1.89.12-1.17,2.7.28,3a2.8,2.8,0,0,0,2.22-.94s.32-.19.15-.26a2.05,2.05,0,0,0,.05.55c.1.34.47.75.44,1.09l1.86-.5a6.68,6.68,0,0,0-1.82-2,1,1,0,0,0-1.37.36,1,1,0,0,0-.1.24,2.77,2.77,0,0,0,.26,1.81L14.41,8a1.9,1.9,0,0,0-.89-.46c-.89-.17-1.81,1-1,1.67a2.82,2.82,0,0,1,1.07,2.33c0,.77-.22,1.7.5,2.22s1.56,0,2-.62a2.54,2.54,0,0,0,.32-2.41C16,9.49,14,10,14.49,11.21c.09.22,0,.33.09.53s-.58.19.14.19l.7.29c.17.14.2-.78.2-1A4.65,4.65,0,0,0,14,7.74L13,9.42V9.36a1,1,0,0,0,1.57-1.21l-.06-.27L13,8.48a4.1,4.1,0,0,1,1.1,1.28A1,1,0,0,0,16,9.25c.06-.69-.36-1.12-.54-1.74s-.26-1.24-1-1.63a1.86,1.86,0,0,0-1.83,0c-.29.17-.53.41-.8.6-.1.07-.35.16-.41.26s-.14.09.07.09.23,0,.11-.13l-.1.77.07-.11-.6.46c-.19.07.19.08.29.26s.07,0,.08-.08H10.9a2.09,2.09,0,0,1-.65.13C10,8.17,9.7,8,9.4,8l-.27,2c1.74.2,2.71-1.55,1.4-2.79A20.71,20.71,0,0,1,8.75,5.36c-.47-.58-1.33-1.52-.81-2.27l-1.13.46L7,3.6l-.6-.46c.19-.52.17-.64-.07-.36-.26.12-.27.2,0,.23l.7.7c-.55.56-.57.8,0,.72h.65a3.73,3.73,0,0,1,.88.12c.47.18.67.67,1,1A2.76,2.76,0,0,0,11,6.28c.47.1,1.25-.08,1.67.11l-.46-.59V6L14,5.5a21,21,0,0,0-1.94-3c-.72-.79-1.71-.64-2.55-1.14A4,4,0,0,0,6.64.44a2,2,0,0,0-1.12.64,1.94,1.94,0,0,0-.38.67A2.35,2.35,0,0,0,5,2.12c-.14.23-.09.28.15.14a1,1,0,0,0,0,2h.13L4.57,4c.13-.79,0-1-.26-.66-.1.12-.2.25-.29.38-.74,1,1,2.06,1.73,1Z" style="fill:#fff"/><path d="M1.35,13.4v.29c0,.12.44,0,.48-.11L2.11,13l-.48.11a.77.77,0,0,1-.07.68L2,13.68c-.1,0-.07-.2-.06-.29V13c0-.1-.44,0-.48.11a4.19,4.19,0,0,0-.35.61l.48-.11V13.2a1.31,1.31,0,0,1,0-.28l-.3.08H1.2a2.08,2.08,0,0,1-.07.5l.48-.1v-.1c-.05-.12-.48,0-.48.13a2,2,0,0,0,0,.49c0,.11.51,0,.49-.13a2,2,0,0,1,0-.49l-.48.13v.1c0,.11.45,0,.48-.11a3.31,3.31,0,0,0,.08-.55H1.61s-.41,0-.47.21a.66.66,0,0,0,0,.28v.4c0,.13.45,0,.48-.11s.27-.38.35-.6l-.48.1v.5c0,.17,0,.21.09.26A.44.44,0,0,0,2,13.72.81.81,0,0,0,2.11,13c0-.13-.43,0-.48.1l-.28.56.48-.1v-.29C1.83,13.18,1.35,13.27,1.35,13.4Z" style="fill:#fff"/><path d="M15,12.21l-.36-.53c-.09-.12-.56,0-.45.18l.36.54C14.63,12.52,15.1,12.4,15,12.21Z" style="fill:#fff"/><path d="M16.1,8.37a.64.64,0,0,1-.19-.45c0-.11-.21-.11-.29-.09s-.21.1-.2.22a.87.87,0,0,0,.24.53.29.29,0,0,0,.33,0c.07,0,.2-.16.11-.25Z" style="fill:#fff"/><path d="M15.47,7.33a1,1,0,0,0,.07-.61c0-.16-.52,0-.49.13a.84.84,0,0,1-.06.54c-.05.1.16.11.21.11A.38.38,0,0,0,15.47,7.33Z" style="fill:#fff"/><path d="M5.63,8.7c.12.17.24.33.35.5s.18.22,0,.33a.35.35,0,0,1-.26.07.51.51,0,0,1-.24-.07c-.14-.09-.13-.19-.16-.34V9.12h0A.48.48,0,0,0,5.54,9c.18-.24-.28-.27-.39-.12s-.22.12-.26.25a.77.77,0,0,0,.05.45.85.85,0,0,0,.82.35,1,1,0,0,0,.8-.44.41.41,0,0,0-.08-.41c-.13-.19-.27-.38-.4-.58s-.58,0-.45.21Z" style="fill:#fff"/><path d="M7.36,9.16a3.48,3.48,0,0,0,.29,1L8.1,10c-.4-.39-.45-1-1.16-.9a.33.33,0,0,0-.28.16c-.22.51,1.15.35,1.27.37.43.08.6.42,1,.5s.55-.29.61.44c0,.31-.36.64-.58.79s.15.25.3.15c.43-.29,1.26-1.29.43-1.63a3,3,0,0,0-.51-.07c-.28-.06-.36-.26-.62-.37a1.17,1.17,0,0,0-.45-.09c-.12,0-1,0-1-.14l-.28.16c.4,0,.55.6.78.83s.56,0,.45-.2a3.52,3.52,0,0,1-.22-1c0-.17-.52,0-.48.13Z" style="fill:#fff"/><path d="M8.72,10c.36.19.83.38.71.88,0,.12.45,0,.48-.08a.68.68,0,0,0-.11-.57,1.94,1.94,0,0,0-.62-.4.44.44,0,0,0-.32,0s-.22.1-.14.15Z" style="fill:#fff"/><path d="M9.65,10.23a1.58,1.58,0,0,0,.91.11l-.13-.24a2.72,2.72,0,0,1-.58.37l.25.21a2.56,2.56,0,0,1,1.5-.39,2.26,2.26,0,0,0,.66-.28l-.33-.13-.28.32.35.15a3.37,3.37,0,0,1,.81-.59c.23-.08-.17,0,.1,0a1.4,1.4,0,0,0,.35.1c.18,0,.57-.24.29-.29s-.52-.29-.86-.18a3.74,3.74,0,0,0-1.08.81c-.22.19.23.21.35.14a1,1,0,0,0,.43-.47c.08-.2-.23-.18-.33-.14-.78.36-1.55.14-2.27.73-.23.19.08.3.26.21a6.12,6.12,0,0,0,.69-.43c.16-.12,0-.26-.13-.24A.81.81,0,0,1,10,10c-.16-.08-.6.15-.38.25Z" style="fill:#fff"/><path d="M6.05,8.49c-.24-.05-.36-.29-.63-.34a1.24,1.24,0,0,0-.47,0c-.2,0-.52.16-.69,0s-.61,0-.45.21a.93.93,0,0,0,.85.19.91.91,0,0,1,.77.07.75.75,0,0,0,.34.21c.2,0,.57-.25.28-.32Z" style="fill:#fff"/><path d="M10.13,14.66s.06-.11.12,0,.09.34.23.4a.72.72,0,0,0,.5.06c.14-.06.26-.24.34-.24s.13,0,.18.13-.12.17-.23.22a1.86,1.86,0,0,1-.52.11c-.11,0-.46,0-.12.08a3.36,3.36,0,0,0,1-.08,1.65,1.65,0,0,0,.41-.18c.09-.07.22,0,.3-.07s-.56-.41-.76-.48a2.92,2.92,0,0,0-.78-.16,1.37,1.37,0,0,0-.57.06,1.6,1.6,0,0,0-.47.19,1.11,1.11,0,0,0-.27.37L10,15l-.08-.16A.48.48,0,0,0,10.13,14.66Z" style="fill:#fff"/><path d="M4.06,15.15s.12.07.18,0A1.17,1.17,0,0,0,4.51,15s0-.16.12-.17a.26.26,0,0,1,.21.11.51.51,0,0,0,.3.19c.1,0,.31,0,.33-.07s.14-.11.16-.16,0-.2.08-.21a.67.67,0,0,1,.28.06s.18.05.18.15-.13.25-.07.23a.79.79,0,0,1,.3-.05c.06,0,.2.07.19,0S6.46,15,6.43,15s0-.1-.14-.17a2.31,2.31,0,0,0-.56-.19,2.24,2.24,0,0,0-.73,0,4.35,4.35,0,0,0-.59.25A1.1,1.1,0,0,0,4.06,15.15Z" style="fill:#fff"/><path d="M3.21,13.88a.23.23,0,0,0,.25,0l.46-.27c.06,0,.19.07.29.06a.92.92,0,0,0,.33-.11c.06,0,.16.07.29.1a3.35,3.35,0,0,0,.55.11H6.3a.25.25,0,0,0,.19-.09c0-.07-.12-.23-.15-.29s-.29-.07-.46-.1a2.4,2.4,0,0,0-.53-.12H4.8a2.35,2.35,0,0,0-.53,0,1.16,1.16,0,0,0-.49.1,1.06,1.06,0,0,0-.47.27A.79.79,0,0,0,3.21,13.88Z" style="fill:#fff"/><path d="M9.09,13.87s0-.21.13-.27.3-.27.41-.33a4.83,4.83,0,0,1,.53-.17l.59-.16a2.73,2.73,0,0,1,.7,0,1.57,1.57,0,0,1,.46.06,1.38,1.38,0,0,1,.65.23c.12.1.39.25.43.34s.07.25,0,.28a.9.9,0,0,1-.46,0,2,2,0,0,0-.48-.18,1.32,1.32,0,0,0-.44-.08,2.57,2.57,0,0,0-.55.06l-.39.09c-.18,0-.32.1-.43.12H9.39C9.28,13.86,9.12,13.92,9.09,13.87Z" style="fill:#fff"/><path d="M5.2,5.77h.26L6,6q.39.2.45.39a.49.49,0,0,1,0,.66c-.1.37-1.1.55-3.25,1.23a4,4,0,0,0-.64.78C2,8.89,1.41,11.6,1.44,11.54l.52-3A6.79,6.79,0,0,0,2.8,7.46c.2-.46.08-.77-.34-.86V6.53A1.37,1.37,0,0,1,3.34,7c.49.17.64,0,.47.39l-.1.25a.15.15,0,0,1-.11.15h0a1.23,1.23,0,0,0,.61-.23l.45-.16a1.58,1.58,0,0,0,.67-.56V6.59A2.1,2.1,0,0,0,3.94,6h0l-1-.15L2.29,6a11.64,11.64,0,0,1,0,1.67l-.44-.09H1.26V6.92A6.64,6.64,0,0,0,.36,3.2h0C.25,3,.13,2.79,0,2.59V2.53c0-.18.54-.39,1.3-.4A4.72,4.72,0,0,1,2.7,3.74l-1-1A17.89,17.89,0,0,1,4.42,4.3a4.41,4.41,0,0,1,.88.79C5.27,5.22,5.48,5.69,5.2,5.77ZM1.94,4.07v.19a5.24,5.24,0,0,1,.28,1.35l1-.11c.48,0,.75,0,.82-.11S3.84,5,3.38,4.8A1.87,1.87,0,0,0,3,4.63,8.36,8.36,0,0,1,1.94,4.07Z" style="fill:#231f20;stroke:#fff6f4;stroke-miterlimit:10;stroke-width:0.05px"/><path d="M9.22,5.52A4.3,4.3,0,0,0,6.89,7.59L6.5,9.17a5.53,5.53,0,0,1-.65-1V8h0a7.61,7.61,0,0,0,0-2.36l-.2-.44V5c0-.06.08-.14.22-.24V4.68a8.71,8.71,0,0,0-.15-1.25H5.46V3.1h0V2.41l.06-.11V1.41c.27.09.83.84,1.67.34A4,4,0,0,0,8.49.42L8.71,1.5v.12A3.83,3.83,0,0,1,6.33,3.3v.13l.14.79h0A7.42,7.42,0,0,1,8.35,3L7.67,4.6l-1.13.47a7.8,7.8,0,0,0,.07,1.22A4.54,4.54,0,0,1,9,4.63l.4-.13c.16.11.22.41.16.9l-.2.1Z" style="fill:#231f20;stroke:#fff6f4;stroke-miterlimit:10;stroke-width:0.05px"/><path d="M9.55,5.8V7.3l-.29.57L7.65,9.07,8.86,6.84a20.23,20.23,0,0,0-.57-5.37h0A7,7,0,0,0,8.05.52V.43c0-.28.28-.43.78-.43C9,0,9.1.27,9.15.73h0a10.76,10.76,0,0,0,2.22,3.53,1.91,1.91,0,0,1,.35.68c0,.44-.42.7-1.16.8.1.42.2.85.32,1.29a15.23,15.23,0,0,0,.82,2.16,4.52,4.52,0,0,0,1.45,1.87h0v0h-.8a3.44,3.44,0,0,1-1.45-1.7A12.94,12.94,0,0,1,10,6.51a5,5,0,0,1-.16-.77Zm-.22-3v.29a18,18,0,0,1,.18,2.08h.62c.31,0,.49-.18.54-.37a1,1,0,0,0-.42-.9A1.08,1.08,0,0,0,10,3.63a6.63,6.63,0,0,1-.68-.81Z" style="fill:#231f20;stroke:#fff6f4;stroke-miterlimit:10;stroke-width:0.05px"/><path d="M11.08,5.3l.27.87v.15h0c-.12,0-.25-.3-.41-.83V5.35H11Zm.38,0,.31,1v.07h-.28l-.27-.88V5.36Zm1,1.13h-.09v.08H12a4.78,4.78,0,0,1-.38-1.1l.58-.13V5.09l-.22-.6v-.2L12.44,4a2.67,2.67,0,0,1,.27.87c.56-.31,2.4-2.25,2.34-2.62A7.86,7.86,0,0,0,15,4.67a16,16,0,0,1-2,1.58,19.55,19.55,0,0,0,1,3l.39,1.09a26.62,26.62,0,0,1,.42-2.82c.32.26.2,2.66.2,2.66a2.19,2.19,0,0,0,.5,1.34c-.21-.26-1.37-.64-1.71-1.46L13.07,8.4c-.35-1.12-.55-1.79-.58-2Z" style="fill:#231f20;stroke:#fff6f4;stroke-miterlimit:10;stroke-width:0.05px"/><path d="M3.71,3.05h0l-.08.19a2.94,2.94,0,0,0,.78-.17c.09,0,.37-.29.15-.35a.48.48,0,0,0-.33.06c-.05,0-.17.1-.06.13h0C4.14,3,4.07,3,4,3h.19a4.19,4.19,0,0,0-.64.1s-.21.06-.22.13.09.06.14.06h0a.5.5,0,0,0,.33-.12c0-.08-.06-.09-.12-.09Z" style="fill:#fff"/><path d="M16.18,10.52c.27,0,.38-.34.05-.34S15.85,10.52,16.18,10.52Z" style="fill:#fff"/></svg>