<svg width="40" height="40" viewBox="0 0 52 30" fill="none" xmlns="http://www.w3.org/2000/svg"><path fill-rule="evenodd" clip-rule="evenodd" d="M0 17.0033L8.68249 25.1435L11.0725 22.5941L4.7205 17.0063L11.0725 11.4185L8.68242 8.86914L0 17.0033Z" fill="#FF3E00"></path><path fill-rule="evenodd" clip-rule="evenodd" d="M40.23 11.4117L42.62 8.8623L51.3027 17.0087L42.6232 25.1461L40.2301 22.5934L46.5816 17.0061L40.23 11.4117Z" fill="#FF3E00"></path><path d="M36.0175 4.67825C33.3759 0.873345 28.1169 -0.241467 24.3362 2.1578L17.6716 6.42317C15.854 7.56222 14.5938 9.42831 14.2302 11.5368C13.9152 13.3059 14.1818 15.1235 15.03 16.6988C14.4483 17.5713 14.0606 18.5407 13.8909 19.5586C13.5032 21.7155 14.0121 23.9451 15.2723 25.7143C17.9382 29.5192 23.173 30.634 26.9536 28.2347L33.6183 23.9936C35.4359 22.8545 36.6961 20.9884 37.0596 18.88C37.3747 17.1108 37.1081 15.2932 36.2599 13.7179C36.8415 12.8455 37.2293 11.8761 37.3989 10.8582C37.8109 8.67703 37.302 6.4474 36.0175 4.67825Z" fill="#FF3E00"></path><path d="M23.6824 26.0779C21.5254 26.6353 19.2716 25.7871 18.0113 23.9695C17.2358 22.9031 16.945 21.5702 17.1631 20.2615C17.2116 20.0434 17.2601 19.8495 17.3085 19.6314L17.4297 19.2436L17.769 19.486C18.5688 20.0676 19.4412 20.5039 20.3864 20.7947L20.6287 20.8674L20.6045 21.1097C20.5803 21.449 20.6772 21.8126 20.8711 22.1034C21.2588 22.6608 21.9374 22.9274 22.5918 22.7577C22.7372 22.7093 22.8826 22.6608 23.0038 22.5881L29.6442 18.3469C29.9835 18.1288 30.2016 17.8138 30.2743 17.426C30.347 17.0383 30.2501 16.6263 30.0319 16.3112C29.6442 15.7538 28.9656 15.5114 28.3112 15.6811C28.1658 15.7296 28.0204 15.778 27.8993 15.8507L25.3546 17.4745C24.9426 17.7411 24.4821 17.935 23.9974 18.0561C21.8405 18.6135 19.5866 17.7653 18.3264 15.9477C17.5751 14.8813 17.2601 13.5484 17.5024 12.2397C17.7205 10.9795 18.4961 9.84045 19.5866 9.16186L26.2513 4.92073C26.6633 4.65415 27.1237 4.46027 27.6084 4.31486C29.7653 3.75745 32.0192 4.60568 33.2794 6.4233C34.055 7.48965 34.3458 8.82257 34.1277 10.1313C34.0792 10.3494 34.0307 10.5433 33.958 10.7614L33.8368 11.1491L33.4975 10.9068C32.6978 10.3251 31.8253 9.88892 30.8802 9.5981L30.6378 9.52539L30.662 9.28304C30.6863 8.94375 30.5893 8.58022 30.3955 8.2894C30.0077 7.732 29.3291 7.48965 28.6748 7.65929C28.5294 7.70776 28.384 7.75623 28.2628 7.82894L21.6224 12.0701C21.2831 12.2882 21.065 12.6032 20.9923 12.991C20.9196 13.3788 21.0165 13.7908 21.2346 14.1058C21.6224 14.6632 22.301 14.9056 22.9553 14.7359C23.1007 14.6875 23.2461 14.639 23.3673 14.5663L25.912 12.9425C26.324 12.6759 26.7844 12.4821 27.2691 12.3367C29.4261 11.7792 31.6799 12.6275 32.9401 14.4451C33.7157 15.5114 34.0065 16.8444 33.7884 18.1531C33.5703 19.4133 32.7947 20.5523 31.7042 21.2309L25.0395 25.472C24.6275 25.7386 24.1671 25.9325 23.6824 26.0779Z" fill="white"></path></svg>